<mxfile modified="2023-08-25T03:27:59.120Z" host="app.diagrams.net" agent="Mozilla/5.0 (X11; Linux x86_64; rv:109.0) Gecko/20100101 Firefox/113.0" etag="8MDumHaQ72tDZI5dMLfl" version="21.6.9" type="device">
  <diagram id="Ht1M8jgEwFfnCIfOTk4-" name="Page-1">
    <mxGraphModel dx="1434" dy="822" grid="1" gridSize="10" guides="1" tooltips="1" connect="1" arrows="1" fold="1" page="1" pageScale="1" pageWidth="827" pageHeight="1169" math="0" shadow="0">
      <root>
        <mxCell id="0" />
        <mxCell id="1" parent="0" />
        <mxCell id="UEzPUAAOIrF-is8g5C7q-2" value="AWS Cloud" style="points=[[0,0],[0.25,0],[0.5,0],[0.75,0],[1,0],[1,0.25],[1,0.5],[1,0.75],[1,1],[0.75,1],[0.5,1],[0.25,1],[0,1],[0,0.75],[0,0.5],[0,0.25]];outlineConnect=0;gradientColor=none;html=1;whiteSpace=wrap;fontSize=12;fontStyle=0;shape=mxgraph.aws4.group;grIcon=mxgraph.aws4.group_aws_cloud_alt;strokeColor=#232F3E;fillColor=none;verticalAlign=top;align=left;spacingLeft=30;fontColor=#232F3E;dashed=0;container=1;pointerEvents=0;collapsible=0;recursiveResize=0;" parent="1" vertex="1">
          <mxGeometry x="435.5" y="70" width="854.5" height="486" as="geometry" />
        </mxCell>
        <mxCell id="8ZX7qJJvUlMbTZdmTD4U-5" style="edgeStyle=orthogonalEdgeStyle;rounded=0;orthogonalLoop=1;jettySize=auto;html=1;" parent="UEzPUAAOIrF-is8g5C7q-2" source="8ZX7qJJvUlMbTZdmTD4U-4" target="8ZX7qJJvUlMbTZdmTD4U-3" edge="1">
          <mxGeometry relative="1" as="geometry" />
        </mxCell>
        <mxCell id="8ZX7qJJvUlMbTZdmTD4U-4" value="API Gateway" style="outlineConnect=0;dashed=0;verticalLabelPosition=bottom;verticalAlign=top;align=center;html=1;shape=mxgraph.aws3.api_gateway;fillColor=#D9A741;gradientColor=none;" parent="UEzPUAAOIrF-is8g5C7q-2" vertex="1">
          <mxGeometry x="31.75" y="146.5" width="76.5" height="93" as="geometry" />
        </mxCell>
        <mxCell id="8ZX7qJJvUlMbTZdmTD4U-9" style="edgeStyle=orthogonalEdgeStyle;rounded=0;orthogonalLoop=1;jettySize=auto;html=1;entryX=0.06;entryY=0.5;entryDx=0;entryDy=0;entryPerimeter=0;" parent="UEzPUAAOIrF-is8g5C7q-2" source="8ZX7qJJvUlMbTZdmTD4U-3" target="8ZX7qJJvUlMbTZdmTD4U-8" edge="1">
          <mxGeometry relative="1" as="geometry" />
        </mxCell>
        <mxCell id="8ZX7qJJvUlMbTZdmTD4U-3" value="Lambda Function" style="outlineConnect=0;dashed=0;verticalLabelPosition=bottom;verticalAlign=top;align=center;html=1;shape=mxgraph.aws3.lambda_function;fillColor=#F58534;gradientColor=none;" parent="UEzPUAAOIrF-is8g5C7q-2" vertex="1">
          <mxGeometry x="204.5" y="156.5" width="75.5" height="73" as="geometry" />
        </mxCell>
        <mxCell id="8ZX7qJJvUlMbTZdmTD4U-14" style="edgeStyle=orthogonalEdgeStyle;rounded=0;orthogonalLoop=1;jettySize=auto;html=1;entryX=0;entryY=0.5;entryDx=0;entryDy=0;entryPerimeter=0;" parent="UEzPUAAOIrF-is8g5C7q-2" source="8ZX7qJJvUlMbTZdmTD4U-8" target="8ZX7qJJvUlMbTZdmTD4U-13" edge="1">
          <mxGeometry relative="1" as="geometry" />
        </mxCell>
        <mxCell id="8ZX7qJJvUlMbTZdmTD4U-8" value="S3 Bucket" style="outlineConnect=0;dashed=0;verticalLabelPosition=bottom;verticalAlign=top;align=center;html=1;shape=mxgraph.aws3.bucket_with_objects;fillColor=#E05243;gradientColor=none;" parent="UEzPUAAOIrF-is8g5C7q-2" vertex="1">
          <mxGeometry x="364.5" y="162.06" width="65.5" height="61.88" as="geometry" />
        </mxCell>
        <mxCell id="UEzPUAAOIrF-is8g5C7q-19" value="2" style="rounded=1;whiteSpace=wrap;html=1;fillColor=#007CBD;strokeColor=none;fontColor=#FFFFFF;fontStyle=1;fontSize=22;" parent="UEzPUAAOIrF-is8g5C7q-2" vertex="1">
          <mxGeometry x="124.5" y="130" width="40" height="38" as="geometry" />
        </mxCell>
        <mxCell id="8ZX7qJJvUlMbTZdmTD4U-20" style="edgeStyle=orthogonalEdgeStyle;rounded=0;orthogonalLoop=1;jettySize=auto;html=1;" parent="UEzPUAAOIrF-is8g5C7q-2" source="8ZX7qJJvUlMbTZdmTD4U-10" target="8ZX7qJJvUlMbTZdmTD4U-13" edge="1">
          <mxGeometry relative="1" as="geometry" />
        </mxCell>
        <mxCell id="8ZX7qJJvUlMbTZdmTD4U-10" value="Rekognition" style="sketch=0;points=[[0,0,0],[0.25,0,0],[0.5,0,0],[0.75,0,0],[1,0,0],[0,1,0],[0.25,1,0],[0.5,1,0],[0.75,1,0],[1,1,0],[0,0.25,0],[0,0.5,0],[0,0.75,0],[1,0.25,0],[1,0.5,0],[1,0.75,0]];outlineConnect=0;fontColor=#232F3E;gradientColor=#4AB29A;gradientDirection=north;fillColor=#116D5B;strokeColor=#ffffff;dashed=0;verticalLabelPosition=bottom;verticalAlign=top;align=center;html=1;fontSize=12;fontStyle=0;aspect=fixed;shape=mxgraph.aws4.resourceIcon;resIcon=mxgraph.aws4.rekognition_2;" parent="UEzPUAAOIrF-is8g5C7q-2" vertex="1">
          <mxGeometry x="684.5" y="154" width="78" height="78" as="geometry" />
        </mxCell>
        <mxCell id="8ZX7qJJvUlMbTZdmTD4U-15" style="edgeStyle=orthogonalEdgeStyle;rounded=0;orthogonalLoop=1;jettySize=auto;html=1;" parent="UEzPUAAOIrF-is8g5C7q-2" source="8ZX7qJJvUlMbTZdmTD4U-13" target="8ZX7qJJvUlMbTZdmTD4U-10" edge="1">
          <mxGeometry relative="1" as="geometry" />
        </mxCell>
        <mxCell id="8ZX7qJJvUlMbTZdmTD4U-19" style="edgeStyle=orthogonalEdgeStyle;rounded=0;orthogonalLoop=1;jettySize=auto;html=1;entryX=0.5;entryY=0;entryDx=0;entryDy=0;entryPerimeter=0;" parent="UEzPUAAOIrF-is8g5C7q-2" source="8ZX7qJJvUlMbTZdmTD4U-13" target="8ZX7qJJvUlMbTZdmTD4U-30" edge="1">
          <mxGeometry relative="1" as="geometry">
            <mxPoint x="552.3000000000002" y="320" as="targetPoint" />
          </mxGeometry>
        </mxCell>
        <mxCell id="8ZX7qJJvUlMbTZdmTD4U-13" value="Lambda Function" style="outlineConnect=0;dashed=0;verticalLabelPosition=bottom;verticalAlign=top;align=center;html=1;shape=mxgraph.aws3.lambda_function;fillColor=#F58534;gradientColor=none;" parent="UEzPUAAOIrF-is8g5C7q-2" vertex="1">
          <mxGeometry x="514.5" y="156.5" width="75.5" height="73" as="geometry" />
        </mxCell>
        <mxCell id="8ZX7qJJvUlMbTZdmTD4U-22" value="3" style="rounded=1;whiteSpace=wrap;html=1;fillColor=#007CBD;strokeColor=none;fontColor=#FFFFFF;fontStyle=1;fontSize=22;labelBackgroundColor=none;" parent="UEzPUAAOIrF-is8g5C7q-2" vertex="1">
          <mxGeometry x="294.5" y="130" width="40" height="38" as="geometry" />
        </mxCell>
        <mxCell id="8ZX7qJJvUlMbTZdmTD4U-23" value="4" style="rounded=1;whiteSpace=wrap;html=1;fillColor=#007CBD;strokeColor=none;fontColor=#FFFFFF;fontStyle=1;fontSize=22;labelBackgroundColor=none;" parent="UEzPUAAOIrF-is8g5C7q-2" vertex="1">
          <mxGeometry x="454.5" y="130" width="40" height="38" as="geometry" />
        </mxCell>
        <mxCell id="8ZX7qJJvUlMbTZdmTD4U-24" value="5" style="rounded=1;whiteSpace=wrap;html=1;fillColor=#007CBD;strokeColor=none;fontColor=#FFFFFF;fontStyle=1;fontSize=22;labelBackgroundColor=none;" parent="UEzPUAAOIrF-is8g5C7q-2" vertex="1">
          <mxGeometry x="614.5" y="130" width="40" height="38" as="geometry" />
        </mxCell>
        <mxCell id="8ZX7qJJvUlMbTZdmTD4U-25" value="6" style="rounded=1;whiteSpace=wrap;html=1;fillColor=#007CBD;strokeColor=none;fontColor=#FFFFFF;fontStyle=1;fontSize=22;labelBackgroundColor=none;" parent="UEzPUAAOIrF-is8g5C7q-2" vertex="1">
          <mxGeometry x="454.5" y="252" width="40" height="38" as="geometry" />
        </mxCell>
        <mxCell id="8ZX7qJJvUlMbTZdmTD4U-34" style="edgeStyle=orthogonalEdgeStyle;rounded=0;orthogonalLoop=1;jettySize=auto;html=1;" parent="UEzPUAAOIrF-is8g5C7q-2" source="8ZX7qJJvUlMbTZdmTD4U-28" target="8ZX7qJJvUlMbTZdmTD4U-32" edge="1">
          <mxGeometry relative="1" as="geometry" />
        </mxCell>
        <mxCell id="8ZX7qJJvUlMbTZdmTD4U-37" style="edgeStyle=orthogonalEdgeStyle;rounded=0;orthogonalLoop=1;jettySize=auto;html=1;" parent="UEzPUAAOIrF-is8g5C7q-2" source="8ZX7qJJvUlMbTZdmTD4U-28" target="8ZX7qJJvUlMbTZdmTD4U-30" edge="1">
          <mxGeometry relative="1" as="geometry" />
        </mxCell>
        <mxCell id="8ZX7qJJvUlMbTZdmTD4U-28" value="Lambda Function" style="outlineConnect=0;dashed=0;verticalLabelPosition=bottom;verticalAlign=top;align=center;html=1;shape=mxgraph.aws3.lambda_function;fillColor=#F58534;gradientColor=none;" parent="UEzPUAAOIrF-is8g5C7q-2" vertex="1">
          <mxGeometry x="590" y="320" width="75.5" height="73" as="geometry" />
        </mxCell>
        <mxCell id="8ZX7qJJvUlMbTZdmTD4U-31" style="edgeStyle=orthogonalEdgeStyle;rounded=0;orthogonalLoop=1;jettySize=auto;html=1;" parent="UEzPUAAOIrF-is8g5C7q-2" source="8ZX7qJJvUlMbTZdmTD4U-30" target="8ZX7qJJvUlMbTZdmTD4U-28" edge="1">
          <mxGeometry relative="1" as="geometry" />
        </mxCell>
        <mxCell id="8ZX7qJJvUlMbTZdmTD4U-30" value="&lt;div&gt;DynamoDB&lt;/div&gt;" style="outlineConnect=0;dashed=0;verticalLabelPosition=bottom;verticalAlign=top;align=center;html=1;shape=mxgraph.aws3.dynamo_db;fillColor=#2E73B8;gradientColor=none;" parent="UEzPUAAOIrF-is8g5C7q-2" vertex="1">
          <mxGeometry x="442.5" y="316" width="72" height="81" as="geometry" />
        </mxCell>
        <mxCell id="8ZX7qJJvUlMbTZdmTD4U-36" style="edgeStyle=orthogonalEdgeStyle;rounded=0;orthogonalLoop=1;jettySize=auto;html=1;" parent="UEzPUAAOIrF-is8g5C7q-2" source="8ZX7qJJvUlMbTZdmTD4U-32" target="8ZX7qJJvUlMbTZdmTD4U-28" edge="1">
          <mxGeometry relative="1" as="geometry" />
        </mxCell>
        <mxCell id="8ZX7qJJvUlMbTZdmTD4U-32" value="API Gateway" style="outlineConnect=0;dashed=0;verticalLabelPosition=bottom;verticalAlign=top;align=center;html=1;shape=mxgraph.aws3.api_gateway;fillColor=#D9A741;gradientColor=none;" parent="UEzPUAAOIrF-is8g5C7q-2" vertex="1">
          <mxGeometry x="728.5" y="316" width="61.5" height="80" as="geometry" />
        </mxCell>
        <mxCell id="8ZX7qJJvUlMbTZdmTD4U-38" value="7" style="rounded=1;whiteSpace=wrap;html=1;fillColor=#007CBD;strokeColor=none;fontColor=#FFFFFF;fontStyle=1;fontSize=22;labelBackgroundColor=none;" parent="UEzPUAAOIrF-is8g5C7q-2" vertex="1">
          <mxGeometry x="532.25" y="290" width="40" height="38" as="geometry" />
        </mxCell>
        <mxCell id="8ZX7qJJvUlMbTZdmTD4U-39" value="8" style="rounded=1;whiteSpace=wrap;html=1;fillColor=#007CBD;strokeColor=none;fontColor=#FFFFFF;fontStyle=1;fontSize=22;labelBackgroundColor=none;" parent="UEzPUAAOIrF-is8g5C7q-2" vertex="1">
          <mxGeometry x="674.5" y="290" width="40" height="38" as="geometry" />
        </mxCell>
        <mxCell id="8ZX7qJJvUlMbTZdmTD4U-40" value="9" style="rounded=1;whiteSpace=wrap;html=1;fillColor=#007CBD;strokeColor=none;fontColor=#FFFFFF;fontStyle=1;fontSize=22;labelBackgroundColor=none;" parent="UEzPUAAOIrF-is8g5C7q-2" vertex="1">
          <mxGeometry x="805.5" y="290" width="40" height="38" as="geometry" />
        </mxCell>
        <mxCell id="UEzPUAAOIrF-is8g5C7q-1" value="" style="points=[[0,0],[0.25,0],[0.5,0],[0.75,0],[1,0],[1,0.25],[1,0.5],[1,0.75],[1,1],[0.75,1],[0.5,1],[0.25,1],[0,1],[0,0.75],[0,0.5],[0,0.25]];outlineConnect=0;gradientColor=none;html=1;whiteSpace=wrap;fontSize=12;fontStyle=0;shape=mxgraph.aws4.group;grIcon=mxgraph.aws4.group_corporate_data_center;strokeColor=#5A6C86;fillColor=none;verticalAlign=top;align=left;spacingLeft=30;fontColor=#5A6C86;dashed=0;container=1;pointerEvents=0;collapsible=0;recursiveResize=0;" parent="1" vertex="1">
          <mxGeometry x="160" y="70" width="260" height="486" as="geometry" />
        </mxCell>
        <mxCell id="8ZX7qJJvUlMbTZdmTD4U-1" value="ESP32-Cam" style="sketch=0;outlineConnect=0;fontColor=#232F3E;gradientColor=none;fillColor=#3F8624;strokeColor=none;dashed=0;verticalLabelPosition=bottom;verticalAlign=top;align=center;html=1;fontSize=12;fontStyle=0;aspect=fixed;pointerEvents=1;shape=mxgraph.aws4.camera;" parent="UEzPUAAOIrF-is8g5C7q-1" vertex="1">
          <mxGeometry x="110" y="154" width="78" height="78" as="geometry" />
        </mxCell>
        <mxCell id="-QjtrjUzRDEMRZ5MF8oH-9" value="1" style="rounded=1;whiteSpace=wrap;html=1;fillColor=#007CBD;strokeColor=none;fontColor=#FFFFFF;fontStyle=1;fontSize=22;" parent="UEzPUAAOIrF-is8g5C7q-1" vertex="1">
          <mxGeometry x="215" y="130" width="40" height="38" as="geometry" />
        </mxCell>
        <mxCell id="-QjtrjUzRDEMRZ5MF8oH-47" value="AI Water Meter Reading Project Architecture" style="text;html=1;resizable=0;points=[];autosize=1;align=left;verticalAlign=top;spacingTop=-4;fontSize=30;fontStyle=1" parent="1" vertex="1">
          <mxGeometry x="168" y="12" width="650" height="40" as="geometry" />
        </mxCell>
        <mxCell id="7OVz4w7n9kzEPWy-4BBC-3" value="" style="rounded=0;whiteSpace=wrap;html=1;fillColor=#EAEDED;fontSize=22;fontColor=#FFFFFF;strokeColor=none;labelBackgroundColor=none;" parent="1" vertex="1">
          <mxGeometry x="170" y="570" width="1170" height="480" as="geometry" />
        </mxCell>
        <mxCell id="7OVz4w7n9kzEPWy-4BBC-4" value="1" style="rounded=1;whiteSpace=wrap;html=1;fillColor=#007CBD;strokeColor=none;fontColor=#FFFFFF;fontStyle=1;fontSize=22;labelBackgroundColor=none;" parent="1" vertex="1">
          <mxGeometry x="188" y="582" width="40" height="38" as="geometry" />
        </mxCell>
        <mxCell id="7OVz4w7n9kzEPWy-4BBC-5" value="2" style="rounded=1;whiteSpace=wrap;html=1;fillColor=#007CBD;strokeColor=none;fontColor=#FFFFFF;fontStyle=1;fontSize=22;labelBackgroundColor=none;" parent="1" vertex="1">
          <mxGeometry x="188" y="685" width="40" height="38" as="geometry" />
        </mxCell>
        <mxCell id="7OVz4w7n9kzEPWy-4BBC-6" value="3" style="rounded=1;whiteSpace=wrap;html=1;fillColor=#007CBD;strokeColor=none;fontColor=#FFFFFF;fontStyle=1;fontSize=22;labelBackgroundColor=none;" parent="1" vertex="1">
          <mxGeometry x="188" y="786" width="40" height="38" as="geometry" />
        </mxCell>
        <mxCell id="7OVz4w7n9kzEPWy-4BBC-7" value="4" style="rounded=1;whiteSpace=wrap;html=1;fillColor=#007CBD;strokeColor=none;fontColor=#FFFFFF;fontStyle=1;fontSize=22;labelBackgroundColor=none;" parent="1" vertex="1">
          <mxGeometry x="188" y="873.5" width="40" height="38" as="geometry" />
        </mxCell>
        <mxCell id="7OVz4w7n9kzEPWy-4BBC-8" value="5" style="rounded=1;whiteSpace=wrap;html=1;fillColor=#007CBD;strokeColor=none;fontColor=#FFFFFF;fontStyle=1;fontSize=22;labelBackgroundColor=none;" parent="1" vertex="1">
          <mxGeometry x="760" y="582" width="40" height="38" as="geometry" />
        </mxCell>
        <mxCell id="7OVz4w7n9kzEPWy-4BBC-13" value="ESP32-Camera takes picture of water meter, encodes the image,  and then sends a POST request to the relevant AWS Rest API Gateway URL. The data will be in JSON form with data including S3 folder to store in and base64 encoded data." style="text;html=1;align=left;verticalAlign=top;spacingTop=-4;fontSize=14;labelBackgroundColor=none;whiteSpace=wrap;" parent="1" vertex="1">
          <mxGeometry x="239.5" y="581.5" width="449" height="118" as="geometry" />
        </mxCell>
        <mxCell id="7OVz4w7n9kzEPWy-4BBC-16" value="The Lambda function will decode the image and then store the image as a jpg in a S3 Bucket." style="text;html=1;align=left;verticalAlign=top;spacingTop=-4;fontSize=14;labelBackgroundColor=none;whiteSpace=wrap;" parent="1" vertex="1">
          <mxGeometry x="241" y="786" width="450" height="94.5" as="geometry" />
        </mxCell>
        <mxCell id="7OVz4w7n9kzEPWy-4BBC-17" value="The AWS Rekognition will perform text detection on the image and send the result back in JSON form. The main information needed is the number recognized from the digits and then combine them to get the meter reading value." style="text;html=1;align=left;verticalAlign=top;spacingTop=-4;fontSize=14;labelBackgroundColor=none;whiteSpace=wrap;" parent="1" vertex="1">
          <mxGeometry x="812" y="582" width="449" height="93" as="geometry" />
        </mxCell>
        <mxCell id="8ZX7qJJvUlMbTZdmTD4U-6" style="edgeStyle=orthogonalEdgeStyle;rounded=0;orthogonalLoop=1;jettySize=auto;html=1;" parent="1" source="8ZX7qJJvUlMbTZdmTD4U-1" target="8ZX7qJJvUlMbTZdmTD4U-4" edge="1">
          <mxGeometry relative="1" as="geometry" />
        </mxCell>
        <mxCell id="8ZX7qJJvUlMbTZdmTD4U-12" value="When the API is invoked, it will trigger a Lambda function." style="text;html=1;align=left;verticalAlign=top;spacingTop=-4;fontSize=14;labelBackgroundColor=none;whiteSpace=wrap;" parent="1" vertex="1">
          <mxGeometry x="240" y="685" width="450" height="91" as="geometry" />
        </mxCell>
        <mxCell id="8ZX7qJJvUlMbTZdmTD4U-43" value="User Interface" style="sketch=0;points=[[0,0,0],[0.25,0,0],[0.5,0,0],[0.75,0,0],[1,0,0],[0,1,0],[0.25,1,0],[0.5,1,0],[0.75,1,0],[1,1,0],[0,0.25,0],[0,0.5,0],[0,0.75,0],[1,0.25,0],[1,0.5,0],[1,0.75,0]];outlineConnect=0;fontColor=#232F3E;gradientColor=#4AB29A;gradientDirection=north;fillColor=#116D5B;strokeColor=#ffffff;dashed=0;verticalLabelPosition=bottom;verticalAlign=top;align=center;html=1;fontSize=12;fontStyle=0;aspect=fixed;shape=mxgraph.aws4.resourceIcon;resIcon=mxgraph.aws4.desktop_and_app_streaming;" parent="1" vertex="1">
          <mxGeometry x="1320" y="387" width="78" height="78" as="geometry" />
        </mxCell>
        <mxCell id="8ZX7qJJvUlMbTZdmTD4U-44" style="edgeStyle=orthogonalEdgeStyle;rounded=0;orthogonalLoop=1;jettySize=auto;html=1;" parent="1" source="8ZX7qJJvUlMbTZdmTD4U-32" target="8ZX7qJJvUlMbTZdmTD4U-43" edge="1">
          <mxGeometry relative="1" as="geometry" />
        </mxCell>
        <mxCell id="8ZX7qJJvUlMbTZdmTD4U-45" value="When a new image is stored in the S3 Bucket, another Lambda function is triggered that will call AWS Rekognition on the image recently stored." style="text;html=1;align=left;verticalAlign=top;spacingTop=-4;fontSize=14;labelBackgroundColor=none;whiteSpace=wrap;" parent="1" vertex="1">
          <mxGeometry x="238.5" y="873.5" width="450" height="94.5" as="geometry" />
        </mxCell>
        <mxCell id="8ZX7qJJvUlMbTZdmTD4U-46" value="6" style="rounded=1;whiteSpace=wrap;html=1;fillColor=#007CBD;strokeColor=none;fontColor=#FFFFFF;fontStyle=1;fontSize=22;labelBackgroundColor=none;" parent="1" vertex="1">
          <mxGeometry x="760" y="685" width="40" height="38" as="geometry" />
        </mxCell>
        <mxCell id="8ZX7qJJvUlMbTZdmTD4U-47" value="If a valid meter reading was obtained, then the Lambda function will store the meter reading into a DynamoDB table as a new entry." style="text;html=1;align=left;verticalAlign=top;spacingTop=-4;fontSize=14;labelBackgroundColor=none;whiteSpace=wrap;" parent="1" vertex="1">
          <mxGeometry x="812" y="685" width="449" height="93" as="geometry" />
        </mxCell>
        <mxCell id="8ZX7qJJvUlMbTZdmTD4U-50" value="7" style="rounded=1;whiteSpace=wrap;html=1;fillColor=#007CBD;strokeColor=none;fontColor=#FFFFFF;fontStyle=1;fontSize=22;labelBackgroundColor=none;" parent="1" vertex="1">
          <mxGeometry x="760" y="780.5" width="40" height="38" as="geometry" />
        </mxCell>
        <mxCell id="8ZX7qJJvUlMbTZdmTD4U-51" value="To read the DynamoDB, a Lambda function can be used to connect and read the table values." style="text;html=1;align=left;verticalAlign=top;spacingTop=-4;fontSize=14;labelBackgroundColor=none;whiteSpace=wrap;" parent="1" vertex="1">
          <mxGeometry x="822" y="780.5" width="449" height="93" as="geometry" />
        </mxCell>
        <mxCell id="8ZX7qJJvUlMbTZdmTD4U-52" value="8" style="rounded=1;whiteSpace=wrap;html=1;fillColor=#007CBD;strokeColor=none;fontColor=#FFFFFF;fontStyle=1;fontSize=22;labelBackgroundColor=none;" parent="1" vertex="1">
          <mxGeometry x="760" y="865" width="40" height="38" as="geometry" />
        </mxCell>
        <mxCell id="8ZX7qJJvUlMbTZdmTD4U-53" value="For better performance, image processing such as performing color-segmentation, extracting digits, specfiying region of interest, etc can be done in either this or another Lambda function with Python (eg. OpenCV)." style="text;whiteSpace=wrap;html=1;fontSize=14;" parent="1" vertex="1">
          <mxGeometry x="239" y="945" width="450" height="80" as="geometry" />
        </mxCell>
        <mxCell id="8ZX7qJJvUlMbTZdmTD4U-55" value="An API Gateway can be used to call the Lambda function that reads the DynamoDB table entries." style="text;html=1;align=left;verticalAlign=top;spacingTop=-4;fontSize=14;labelBackgroundColor=none;whiteSpace=wrap;" parent="1" vertex="1">
          <mxGeometry x="822" y="865" width="449" height="93" as="geometry" />
        </mxCell>
        <mxCell id="8ZX7qJJvUlMbTZdmTD4U-56" value="9" style="rounded=1;whiteSpace=wrap;html=1;fillColor=#007CBD;strokeColor=none;fontColor=#FFFFFF;fontStyle=1;fontSize=22;labelBackgroundColor=none;" parent="1" vertex="1">
          <mxGeometry x="760" y="945" width="40" height="38" as="geometry" />
        </mxCell>
        <mxCell id="8ZX7qJJvUlMbTZdmTD4U-57" value="The water meter reading data inside DynamoDB can be shown on a GUI  such as a website or mobile app using the API configured." style="text;html=1;align=left;verticalAlign=top;spacingTop=-4;fontSize=14;labelBackgroundColor=none;whiteSpace=wrap;" parent="1" vertex="1">
          <mxGeometry x="822" y="945" width="468" height="93" as="geometry" />
        </mxCell>
      </root>
    </mxGraphModel>
  </diagram>
</mxfile>
